<?xml version="1.0" standalone="no"?>
<!DOCTYPE svg PUBLIC "-//W3C//DTD SVG 20010904//EN"
 "http://www.w3.org/TR/2001/REC-SVG-20010904/DTD/svg10.dtd">
<svg version="1.0" xmlns="http://www.w3.org/2000/svg"
 width="118.000000pt" height="126.000000pt" viewBox="0 0 118.000000 126.000000"
 preserveAspectRatio="xMidYMid meet">

<g transform="translate(0.000000,126.000000) scale(0.100000,-0.100000)"
fill="#000000" stroke="none">
<path d="M446 1245 c-57 -20 -87 -45 -113 -95 -17 -32 -33 -47 -59 -56 -74
-25 -139 -113 -150 -201 -5 -37 -15 -57 -44 -88 -56 -60 -74 -101 -74 -170 0
-63 23 -123 61 -158 15 -13 20 -31 20 -76 1 -57 15 -96 55 -154 23 -32 113
-87 145 -87 15 0 27 -13 44 -46 25 -53 88 -99 149 -109 108 -18 210 75 210
192 0 26 3 65 6 85 6 36 8 38 45 38 l39 0 0 -56 c0 -36 -5 -61 -15 -70 -60
-60 4 -157 83 -125 53 22 63 80 21 126 -14 15 -19 40 -21 100 l-3 80 -68 3
-68 3 3 52 3 52 173 3 172 2 0 -116 c0 -101 -3 -119 -20 -141 -27 -34 -25 -69
5 -98 29 -30 73 -33 106 -6 31 25 32 86 1 111 -20 17 -22 28 -24 161 l-3 144
-208 3 -208 2 3 63 3 62 154 3 c147 2 155 2 177 -19 34 -32 81 -29 112 6 62
72 -35 165 -111 105 -23 -18 -40 -20 -181 -20 l-156 0 0 50 0 50 81 0 c116 0
119 3 119 107 0 75 3 90 22 110 45 48 8 133 -58 133 -60 0 -96 -88 -54 -130
16 -16 20 -33 20 -85 l0 -65 -64 0 -63 0 -12 88 c-16 123 -27 158 -66 197 -53
52 -117 66 -189 40z m127 -93 c11 -9 28 -35 38 -57 17 -37 19 -74 19 -465 0
-422 0 -426 -22 -470 -14 -26 -37 -53 -57 -64 -31 -18 -37 -18 -75 -5 -52 18
-90 71 -82 114 7 34 37 68 89 102 31 19 38 29 35 51 -2 22 -9 28 -34 30 -47 5
-143 -76 -167 -141 -3 -8 -19 -4 -53 14 -68 36 -98 93 -90 170 5 53 4 58 -25
85 -41 39 -59 75 -59 119 0 48 21 86 71 127 38 32 41 39 44 91 2 30 11 69 19
85 15 29 71 83 84 81 4 0 21 -21 37 -47 31 -49 64 -64 91 -42 20 18 18 34 -11
68 -35 42 -40 80 -15 120 37 59 116 76 163 34z"/>
<path d="M315 824 c-45 -49 -65 -105 -64 -180 1 -71 10 -106 43 -161 24 -38
41 -47 67 -33 25 14 24 35 -6 94 -41 81 -32 160 26 235 23 29 23 35 3 55 -22
23 -41 20 -69 -10z"/>
</g>
</svg>
